<?xml version="1.0" encoding="utf-8"?>
<!-- Generator: Adobe Illustrator 22.1.0, SVG Export Plug-In . SVG Version: 6.00 Build 0)  -->
<svg version="1.1" id="Layer_1" xmlns="http://www.w3.org/2000/svg" xmlns:xlink="http://www.w3.org/1999/xlink" x="0px" y="0px"
	 viewBox="0 0 24 24" style="enable-background:new 0 0 24 24;" xml:space="preserve">
<style type="text/css">
	.st0{fill:#009640;}
	.st1{fill:none;}
</style>
<path class="st0" d="M15.1,15.6c-3.8,0-6.8-2.9-6.8-6.6c0-2.7,1.6-4.9,4-6c-0.1,0-0.2,0-0.2,0c-5,0-9,4-9,9c0,5,4,9,9,9
	c4.9,0,8.9-3.9,9-8.8C19.8,14.2,17.6,15.6,15.1,15.6z"/>
<path class="st1" d="M9.4,2.4C9.4,2.4,9.4,2.4,9.4,2.4"/>
<path class="st1" d="M9.6,1.9c0,0,0.4,0,1,0"/>
<path class="st1" d="M10.9,2.3c0,0,0.4,0,1,0"/>
</svg>
